<svg id="Layer_1" data-name="Layer 1" xmlns="http://www.w3.org/2000/svg" xmlns:xlink="http://www.w3.org/1999/xlink" viewBox="0 0 104.01 158.87"><defs><style>.cls-1{fill:url(#linear-gradient);}.cls-2{fill:url(#linear-gradient-2);}.cls-3{fill:url(#linear-gradient-3);}</style><linearGradient id="linear-gradient" x1="0.9" y1="59.62" x2="86.07" y2="59.62" gradientUnits="userSpaceOnUse"><stop offset="0" stop-color="#00cfe5"/><stop offset="1" stop-color="#3fecff"/></linearGradient><linearGradient id="linear-gradient-2" x1="0" y1="79.43" x2="104.01" y2="79.43" xlink:href="#linear-gradient"/><linearGradient id="linear-gradient-3" x1="19.73" y1="66.35" x2="67.25" y2="66.35" xlink:href="#linear-gradient"/></defs><title>logo-no-text</title><path class="cls-1" d="M43.49,102.21H.9V59.62a42.6,42.6,0,1,1,42.59,42.59ZM8.07,95H43.49a35.45,35.45,0,0,0,16.77-4.22c16.66-9,24.17-30,14.08-49A31.7,31.7,0,0,0,61.27,28.76c-19-10.08-40-2.56-49,14.09A35.45,35.45,0,0,0,8.07,59.62Z"/><path class="cls-2" d="M43.49,0A60.45,60.45,0,0,0,2.65,15.85,5.47,5.47,0,0,0,0,20.62a5.64,5.64,0,0,0,.9,3.1,4.79,4.79,0,0,0,4,2.28A4.61,4.61,0,0,0,8,24.84l.44-.42s0,0,0,0a50.34,50.34,0,1,1,35.05,86.45H.9V121H1v35.84A.27.27,0,0,0,1,157c1.51,2.31,3.84,2.24,5.13,1.08a3,3,0,0,0,1-2c2.1-21.88,29-31.73,44.18-35.57a61.53,61.53,0,0,0,9.3-2,59.74,59.74,0,0,0,11.57-4.74A60.41,60.41,0,0,0,102.8,72.51a59.62,59.62,0,0,0,1.21-12A60.59,60.59,0,0,0,43.49,0Z"/><path class="cls-3" d="M56.19,39.35C43.28,32,28.7,37,22.56,48.37a23.71,23.71,0,0,0-2.83,11.25V96.83h4V83.38H43.49a23.83,23.83,0,0,0,11.25-2.83c11.4-6.13,16.41-20.71,9-33.62A20.42,20.42,0,0,0,56.19,39.35ZM52.84,77a19.74,19.74,0,0,1-9.35,2.35H23.73V59.62a19.74,19.74,0,0,1,2.35-9.35c5.23-9.72,17.84-13.86,28.78-7a15.81,15.81,0,0,1,5,5C66.7,59.18,62.56,71.79,52.84,77Z"/></svg>